<svg xmlns="http://www.w3.org/2000/svg" viewBox="0 0 40 50"><path d="M32.3 28.2v-9.8c1.6-1.1 2.5-3 2.5-4.9 0-3.3-2.7-6-6-6 -1.3 0-2.5 0.4-3.6 1.2 -1-2-3.1-3.4-5.4-3.4 -2.3 0-4.4 1.4-5.4 3.4 -1-0.7-2.3-1.2-3.6-1.2 -3.3 0-6 2.7-6 6 0 2 1 3.8 2.5 4.9v9.8C6 28.7 4.9 30 4.9 31.7c0 2 1.6 3.6 3.6 3.6h22.8c2 0 3.6-1.6 3.6-3.6C34.9 30 33.8 28.6 32.3 28.2zM6.9 13.5c0-2.2 1.8-4 4-4 1.3 0 2.4 0.6 3.2 1.6 0.2 0.3 0.7 0.5 1 0.4 0.4-0.1 0.7-0.4 0.8-0.8 0.3-1.9 2-3.4 4-3.4s3.7 1.5 4 3.4c0.1 0.4 0.4 0.7 0.8 0.8 0.4 0.1 0.8-0.1 1-0.4 0.8-1 1.9-1.6 3.2-1.6 2.2 0 4 1.8 4 4 0 1.4-0.8 2.8-2 3.5 -0.3 0.2-0.5 0.5-0.5 0.9V28h-3.4v-7.8c0-0.5-0.5-1-1-1 -0.6 0-1 0.5-1 1V28h-4v-7.8c0-0.5-0.5-1-1-1 -0.6 0-1 0.5-1 1V28h-4v-7.8c0-0.5-0.5-1-1-1 -0.6 0-1 0.5-1 1V28H9.4V17.9c0-0.4-0.2-0.7-0.5-0.9C7.7 16.3 6.9 15 6.9 13.5zM31.3 33.2H8.5c-0.9 0-1.6-0.7-1.6-1.6 0-0.9 0.7-1.6 1.6-1.6h22.8c0 0 0 0 0 0 0.9 0 1.6 0.7 1.6 1.6C32.9 32.5 32.2 33.2 31.3 33.2z" fill="#ffffff"/></svg>