<?xml version="1.0" encoding="UTF-8" standalone="no"?>
<svg
   xmlns:dc="http://purl.org/dc/elements/1.1/"
   xmlns:cc="http://creativecommons.org/ns#"
   xmlns:rdf="http://www.w3.org/1999/02/22-rdf-syntax-ns#"
   xmlns:svg="http://www.w3.org/2000/svg"
   xmlns="http://www.w3.org/2000/svg"
   xmlns:sodipodi="http://sodipodi.sourceforge.net/DTD/sodipodi-0.dtd"
   xmlns:inkscape="http://www.inkscape.org/namespaces/inkscape"
   version="1.1"
   x="0px"
   y="0px"
   viewBox="0 0 40 50"
   enable-background="new 0 0 40 40"
   xml:space="preserve"
   id="svg2"
   inkscape:version="0.91 r13725"
   sodipodi:docname="noun_621748_cc.svg"><metadata
     id="metadata16"><rdf:RDF><cc:Work
         rdf:about=""><dc:format>image/svg+xml</dc:format><dc:type
           rdf:resource="http://purl.org/dc/dcmitype/StillImage" /></cc:Work></rdf:RDF></metadata><defs
     id="defs14" /><sodipodi:namedview
     pagecolor="#ffffff"
     bordercolor="#666666"
     borderopacity="1"
     objecttolerance="10"
     gridtolerance="10"
     guidetolerance="10"
     inkscape:pageopacity="0"
     inkscape:pageshadow="2"
     inkscape:window-width="1272"
     inkscape:window-height="676"
     id="namedview12"
     showgrid="false"
     inkscape:zoom="4.72"
     inkscape:cx="8.4533898"
     inkscape:cy="25"
     inkscape:window-x="0"
     inkscape:window-y="27"
     inkscape:window-maximized="0"
     inkscape:current-layer="g4" /><g
     id="g4"><path
       fill="#000000"
       d="M32.3,28.2v-9.8c1.6-1.1,2.5-3,2.5-4.9c0-3.3-2.7-6-6-6c-1.3,0-2.5,0.4-3.6,1.2c-1-2-3.1-3.4-5.4-3.4   c-2.3,0-4.4,1.4-5.4,3.4c-1-0.7-2.3-1.2-3.6-1.2c-3.3,0-6,2.7-6,6c0,2,1,3.8,2.5,4.9v9.8C6,28.7,4.9,30,4.9,31.7   c0,2,1.6,3.6,3.6,3.6h22.8c2,0,3.6-1.6,3.6-3.6C34.9,30,33.8,28.6,32.3,28.2z M6.9,13.5c0-2.2,1.8-4,4-4c1.3,0,2.4,0.6,3.2,1.6   c0.2,0.3,0.7,0.5,1,0.4c0.4-0.1,0.7-0.4,0.8-0.8c0.3-1.9,2-3.4,4-3.4s3.7,1.5,4,3.4c0.1,0.4,0.4,0.7,0.8,0.8c0.4,0.1,0.8-0.1,1-0.4   c0.8-1,1.9-1.6,3.2-1.6c2.2,0,4,1.8,4,4c0,1.4-0.8,2.8-2,3.5c-0.3,0.2-0.5,0.5-0.5,0.9V28h-3.4v-7.8c0-0.5-0.5-1-1-1   c-0.6,0-1,0.5-1,1V28h-4v-7.8c0-0.5-0.5-1-1-1c-0.6,0-1,0.5-1,1V28h-4v-7.8c0-0.5-0.5-1-1-1c-0.6,0-1,0.5-1,1V28H9.4V17.9   c0-0.4-0.2-0.7-0.5-0.9C7.7,16.3,6.9,15,6.9,13.5z M31.3,33.2H8.5c-0.9,0-1.6-0.7-1.6-1.6c0-0.9,0.7-1.6,1.6-1.6h22.8c0,0,0,0,0,0   c0.9,0,1.6,0.7,1.6,1.6C32.9,32.5,32.2,33.2,31.3,33.2z"
       id="path6"
       style="fill:#00000f;fill-opacity:1" /></g></svg>